8888888888                888      8888888888                       
888                       888      888                              
888                       888      888                              
8888888  .d88b.   .d88b.  888      8888888 888d888 .d88b.   .d88b.  
888     d8P  Y8b d8P  Y8b 888      888     888P"  d8P  Y8b d8P  Y8b 
888     88888888 88888888 888      888     888    88888888 88888888 
888     Y8b.     Y8b.     888      888     888    Y8b.     Y8b.     
888      "Y8888   "Y8888  888      888     888     "Y8888   "Y8888  


################Credits To Feel Free, Pitic & Tony################


Genre:Action | Adventure | Sci-Fi
Language:English
IMDb: 
http://www.imdb.com/title/tt0848228
Source:NYDIC Thanks!
SUBTITLES:English
Encoder:Tony

Format : AVI
Format/Info : Audio Video Interleave
File size : 1.96 GiB
Duration : 2h 17mn
Overall bit rate : 2 051 Kbps

Video
ID : 0
Format : MPEG-4 Visual
Format profile : Advanced Simple@L5
Format settings, BVOP : 1
Format settings, QPel : No
Format settings, GMC : No warppoints
Format settings, Matrix : Default (H.263)
Codec ID : XVID
Codec ID/Hint : XviD
Duration : 2h 17mn
Bit rate : 1 657 Kbps
Width : 640 pixels
Height : 344 pixels
Display aspect ratio : 1.860
Frame rate : 25.000 fps
Color space : YUV
Chroma subsampling : 4:2:0
Bit depth : 8 bits
Scan type : Progressive
Compression mode : Lossy
Bits/(Pixel*Frame) : 0.301
Stream size : 1.59 GiB (81%)
Writing library : XviD 1.2.1 (UTC 2008-12-04)

Audio
ID : 1
Format : AC-3
Format/Info : Audio Coding 3
Mode extension : CM (complete main)
Codec ID : 2000
Duration : 2h 17mn
Bit rate mode : Constant
Bit rate : 384 Kbps
Channel(s) : 6 channels
Channel positions : Front: L C R, Side: L R, LFE
Sampling rate : 48.0 KHz
Bit depth : 16 bits
Compression mode : Lossy
Stream size : 376 MiB (19%)
Alignment : Aligned on interleaves
Interleave, duration : 40 ms (1.00 video frame)
Interleave, preload duration : 512 ms


Plot:
Nick Fury of S.H.I.E.L.D. brings together a team of super humans to form The Avengers to help save the Earth from Loki and his army.


Screen Shots:
                                                
http://img12.imageshack.us/img12/6131/vlcsnap2012081818h37m36.png
 
http://img62.imageshack.us/img62/2600/vlcsnap2012081818h37m42.png
 
http://img18.imageshack.us/img18/1985/vlcsnap2012081818h38m34.png
 
http://img821.imageshack.us/img821/9537/vlcsnap2012081818h40m18.png
 
http://img440.imageshack.us/img440/221/vlcsnap2012081818h38m46.png
 
http://img440.imageshack.us/img440/7186/vlcsnap2012081818h41m58.png


################Credits To Feel Free, Pitic & Tony################


8888888888                888      8888888888                       
888                       888      888                              
888                       888      888                              
8888888  .d88b.   .d88b.  888      8888888 888d888 .d88b.   .d88b.  
888     d8P  Y8b d8P  Y8b 888      888     888P"  d8P  Y8b d8P  Y8b 
888     88888888 88888888 888      888     888    88888888 88888888 
888     Y8b.     Y8b.     888      888     888    Y8b.     Y8b.     
888      "Y8888   "Y8888  888      888     888     "Y8888   "Y8888  